<?xml version="1.0" standalone="no"?><!DOCTYPE svg PUBLIC "-//W3C//DTD SVG 1.1//EN" "http://www.w3.org/Graphics/SVG/1.1/DTD/svg11.dtd"><svg t="1588152102956" class="icon" viewBox="0 0 1024 1024" version="1.1" xmlns="http://www.w3.org/2000/svg" p-id="8833" xmlns:xlink="http://www.w3.org/1999/xlink" width="200" height="200"><defs><style type="text/css"></style></defs><path d="M512 512m-426.666667 0a426.666667 426.666667 0 1 0 853.333334 0 426.666667 426.666667 0 1 0-853.333334 0Z" fill="#FED66F" p-id="8834"></path><path d="M512 618.666667c47.232 0 118.357333 7.125333 213.333333 21.333333 0 100.992-95.530667 170.666667-213.333333 170.666667s-213.333333-69.674667-213.333333-170.666667c94.634667-14.208 165.76-21.333333 213.333333-21.333333zM362.666667 298.666667c35.328 0 64 38.186667 64 85.333333s-28.672 85.333333-64 85.333333-64-38.186667-64-85.333333 28.672-85.333333 64-85.333333z m298.666666 0c35.328 0 64 38.186667 64 85.333333s-28.672 85.333333-64 85.333333-64-38.186667-64-85.333333 28.672-85.333333 64-85.333333z" fill="#AA7109" p-id="8835"></path></svg>