<?xml version="1.0" standalone="no"?><!DOCTYPE svg PUBLIC "-//W3C//DTD SVG 1.1//EN" "http://www.w3.org/Graphics/SVG/1.1/DTD/svg11.dtd"><svg t="1587720762144" class="icon" viewBox="0 0 1024 1024" version="1.1" xmlns="http://www.w3.org/2000/svg" p-id="3382" xmlns:xlink="http://www.w3.org/1999/xlink" width="200" height="200"><defs><style type="text/css"></style></defs><path d="M521.309091 737.745455c-93.090909 0-167.563636-67.490909-181.527273-158.254546h-46.545454c13.963636 114.036364 109.381818 202.472727 225.745454 202.472727s214.109091-88.436364 225.745455-202.472727h-46.545455c-9.309091 90.763636-86.109091 158.254545-176.872727 158.254546zM512 23.272727C249.018182 23.272727 34.909091 237.381818 34.909091 500.363636S249.018182 977.454545 512 977.454545s477.090909-214.109091 477.090909-477.090909S774.981818 23.272727 512 23.272727z m0 905.309091c-237.381818 0-428.218182-193.163636-428.218182-428.218182C83.781818 262.981818 274.618182 72.145455 512 72.145455s428.218182 193.163636 428.218182 428.218181c0 237.381818-190.836364 428.218182-428.218182 428.218182z m132.654545-479.418182c27.927273 0 51.2-23.272727 51.2-51.2 0-27.927273-23.272727-51.2-51.2-51.2-27.927273 0-53.527273 23.272727-53.527272 51.2 2.327273 27.927273 25.6 51.2 53.527272 51.2z m-272.290909 0c27.927273 0 53.527273-23.272727 53.527273-51.2 0-27.927273-23.272727-51.2-53.527273-51.2-27.927273 0-53.527273 23.272727-53.527272 51.2 2.327273 27.927273 25.6 51.2 53.527272 51.2z" p-id="3383"></path></svg>