<?xml version="1.0" standalone="no"?><!DOCTYPE svg PUBLIC "-//W3C//DTD SVG 1.1//EN" "http://www.w3.org/Graphics/SVG/1.1/DTD/svg11.dtd"><svg t="1588151954659" class="icon" viewBox="0 0 1026 1024" version="1.1" xmlns="http://www.w3.org/2000/svg" p-id="2150" xmlns:xlink="http://www.w3.org/1999/xlink" width="200.390625" height="200"><defs><style type="text/css"></style></defs><path d="M512.462 62.335C263.68 62.335 62 263.733 62 512.168s201.681 449.833 450.462 449.833c248.787 0 450.462-201.398 450.462-449.833 0-248.435-201.676-449.833-450.462-449.833z m0 824.696c-207.323 0-375.388-167.83-375.388-374.863 0-207.035 168.066-374.864 375.388-374.864 207.324 0 375.39 167.83 375.39 374.864 0 207.033-168.066 374.863-375.39 374.863z" fill="" p-id="2151"></path><path d="M310.722 393.492c0 14.971 6.175 29.855 16.776 40.441 10.6 10.587 25.505 16.753 40.499 16.753 14.992 0 29.892-6.166 40.493-16.753 10.606-10.586 16.775-25.469 16.775-40.441 0-14.973-6.169-29.851-16.775-40.437-10.6-10.587-25.502-16.753-40.493-16.753-14.993 0-29.898 6.166-40.499 16.753-10.6 10.586-16.776 25.464-16.776 40.437zM599.659 393.492c0 14.971 6.17 29.855 16.776 40.441 10.6 10.587 25.5 16.753 40.493 16.753 14.993 0 29.897-6.166 40.497-16.753 10.602-10.586 16.776-25.469 16.776-40.441 0-14.973-6.174-29.851-16.776-40.437-10.6-10.587-25.505-16.753-40.497-16.753-14.993 0-29.892 6.166-40.493 16.753-10.606 10.586-16.776 25.464-16.776 40.437zM699.131 534.667c-16.2 0-29.966 11.653-32.807 27.574-13.043 73.046-76.965 128.496-153.862 128.496-76.896 0-140.817-55.448-153.86-128.496-2.842-15.921-16.609-27.574-32.809-27.574-20.738 0-36.412 18.719-32.792 39.109 18.508 104.274 109.723 183.472 219.46 183.472 109.738 0 200.952-79.197 219.461-183.472 3.62-20.391-12.054-39.109-32.793-39.109z" fill="" p-id="2152"></path></svg>